<svg xmlns="http://www.w3.org/2000/svg" viewBox="10.74,4.75,200.09,302.19" role="img" aria-label="Care of Tanner">
  <title>Care of Tanner</title>
  <path d="M 38.32 124.32 L 38.61 130.01 L 38.81 135.28 L 38.94 140.14 L 39.01 144.61 L 39.02 148.72 L 38.99 152.50 L 38.92 155.97 L 38.83 159.15 L 38.72 162.07 L 38.60 164.75 L 38.48 167.22 L 38.37 169.51 L 38.29 171.64 L 38.24 173.64 L 38.23 175.53 L 38.29 177.34 L 38.41 179.08 L 38.62 180.79 L 38.91 182.46 L 39.30 184.12 L 39.78 185.77 L 40.36 187.44 L 41.03 189.14 L 41.79 190.90 L 42.65 192.75 L 43.62 194.71 L 44.69 196.80 L 45.89 199.06 L 47.23 201.51 L 48.70 204.17 L 50.34 207.07 L 52.14 210.23 L 54.11 213.67 L 56.27 217.43 L 58.63 221.51 L 61.20 225.95 L 64.01 230.51 L 66.90 234.95 L 69.87 239.26 L 72.92 243.44 L 76.04 247.49 L 79.22 251.40 L 82.46 255.17 L 85.76 258.80 L 89.10 262.28 L 92.49 265.61 L 95.91 268.79 L 99.34 271.85 L 102.70 274.88 L 106.08 277.75 L 109.49 280.47 L 112.92 283.04 L 116.36 285.45 L 119.82 287.70 L 123.28 289.78 L 126.75 291.70 L 130.22 293.45 L 133.68 295.03 L 137.14 296.44 L 140.59 297.66 L 144.03 298.70 L 147.46 299.55 L 150.87 300.21 L 154.26 300.66 L 157.63 300.91 L 160.98 300.94 L 164.29 300.74 L 167.56 300.30 L 170.79 299.62 L 173.95 298.67 L 177.04 297.47 L 180.04 296.00 L 182.91 294.27 L 185.61 292.31 L 188.14 290.14 L 190.48 287.77 L 192.64 285.21 L 194.61 282.47 L 196.40 279.57 L 198.00 276.52 L 199.43 273.33 L 200.68 270.02 L 201.76 266.58 L 202.67 263.03 L 203.42 259.37 L 204.00 255.62 L 204.43 251.76 L 204.71 247.82 L 204.83 243.79 L 204.79 239.68 L 204.61 235.50 L 204.27 231.24 L 203.79 226.92 L 203.15 222.55 L 202.37 218.12 L 201.44 213.63 L 200.36 209.11 L 199.14 204.55 L 197.76 199.95 L 196.24 195.33 L 194.58 190.69 L 192.76 186.03 L 190.80 181.36 L 188.70 176.68 L 186.44 172.01 L 184.04 167.34 L 181.50 162.69 L 178.80 158.05 L 176.00 153.49 L 173.13 149.08 L 170.19 144.80 L 167.20 140.66 L 164.16 136.65 L 161.08 132.79 L 157.97 129.07 L 154.83 125.48 L 151.68 122.04 L 148.52 118.73 L 145.37 115.57 L 142.21 112.54 L 139.08 109.66 L 135.99 106.90 L 132.99 104.19 L 130.04 101.62 L 127.12 99.19 L 124.25 96.90 L 121.44 94.75 L 118.70 92.74 L 116.03 90.87 L 113.43 89.14 L 110.93 87.54 L 108.51 86.09 L 106.20 84.76 L 104.00 83.58 L 101.91 82.52 L 99.93 81.60 L 98.07 80.79 L 96.33 80.11 L 94.68 79.53 L 93.11 79.06 L 91.56 78.70 L 89.94 78.52 L 88.15 78.71 L 86.34 79.65 L 92.16 85.82 L 91.60 85.92 L 91.44 85.57 L 91.83 85.15 L 92.63 84.86 L 93.76 84.74 L 95.13 84.82 L 96.71 85.09 L 98.47 85.54 L 100.38 86.15 L 102.44 86.93 L 104.63 87.88 L 106.95 88.98 L 109.37 90.23 L 111.90 91.64 L 114.52 93.20 L 117.23 94.90 L 120.01 96.75 L 122.87 98.75 L 125.79 100.90 L 128.76 103.18 L 131.78 105.62 L 134.83 108.19 L 137.84 110.99 L 140.85 113.95 L 143.87 117.04 L 146.89 120.27 L 149.91 123.64 L 152.91 127.14 L 155.89 130.78 L 158.85 134.55 L 161.76 138.46 L 164.63 142.49 L 167.45 146.66 L 170.21 150.96 L 172.90 155.39 L 175.51 159.95 L 178.01 164.58 L 180.36 169.22 L 182.57 173.86 L 184.63 178.50 L 186.54 183.13 L 188.31 187.75 L 189.93 192.34 L 191.40 196.91 L 192.72 201.44 L 193.90 205.94 L 194.93 210.39 L 195.82 214.78 L 196.56 219.12 L 197.15 223.40 L 197.60 227.60 L 197.90 231.73 L 198.05 235.77 L 198.07 239.72 L 197.94 243.58 L 197.66 247.32 L 197.25 250.96 L 196.70 254.48 L 196.01 257.88 L 195.19 261.14 L 194.24 264.27 L 193.16 267.26 L 191.95 270.10 L 190.63 272.80 L 189.19 275.34 L 187.63 277.73 L 185.97 279.96 L 184.20 282.05 L 182.31 283.98 L 180.32 285.77 L 178.20 287.42 L 175.96 288.92 L 173.61 290.26 L 171.17 291.43 L 168.64 292.42 L 166.02 293.24 L 163.30 293.89 L 160.49 294.35 L 157.59 294.63 L 154.59 294.71 L 151.52 294.61 L 148.37 294.31 L 145.15 293.82 L 141.87 293.14 L 138.54 292.26 L 135.17 291.19 L 131.76 289.93 L 128.32 288.49 L 124.85 286.86 L 121.37 285.05 L 117.88 283.06 L 114.39 280.89 L 110.90 278.55 L 107.42 276.05 L 103.95 273.38 L 100.50 270.54 L 97.18 267.45 L 93.93 264.16 L 90.72 260.74 L 87.55 257.18 L 84.44 253.49 L 81.38 249.66 L 78.39 245.70 L 75.46 241.61 L 72.59 237.40 L 69.81 233.07 L 67.11 228.62 L 64.49 224.05 L 61.93 219.61 L 59.58 215.53 L 57.44 211.77 L 55.49 208.33 L 53.74 205.17 L 52.17 202.27 L 50.78 199.62 L 49.56 197.18 L 48.51 194.94 L 47.61 192.87 L 46.87 190.96 L 46.27 189.19 L 45.81 187.54 L 45.46 185.98 L 45.22 184.51 L 45.07 183.08 L 44.98 181.67 L 44.95 180.26 L 44.95 178.79 L 44.99 177.26 L 45.05 175.62 L 45.12 173.85 L 45.22 171.92 L 45.32 169.83 L 45.43 167.55 L 45.53 165.05 L 45.63 162.32 L 45.70 159.34 L 45.76 156.10 L 45.78 152.55 L 45.76 148.70 L 45.69 144.51 L 45.57 139.96 L 45.38 135.03 L 45.13 129.70 L 44.79 123.94 Z M 91.07 82.72 L 90.95 79.01 L 90.73 75.34 L 90.41 71.70 L 89.99 68.11 L 89.47 64.57 L 88.85 61.09 L 88.13 57.67 L 87.30 54.32 L 86.36 51.05 L 85.32 47.87 L 84.17 44.78 L 82.91 41.79 L 81.54 38.91 L 80.06 36.15 L 78.47 33.51 L 76.77 31.01 L 74.96 28.65 L 73.03 26.43 L 71.00 24.37 L 68.86 22.48 L 66.78 20.56 L 64.56 18.80 L 62.22 17.19 L 59.74 15.75 L 57.13 14.49 L 54.38 13.42 L 51.49 12.56 L 48.48 11.90 L 45.32 11.48 L 42.04 11.28 L 40.19 11.14 L 38.09 10.86 L 36.05 10.75 L 34.06 10.82 L 32.14 11.05 L 30.29 11.46 L 28.52 12.03 L 26.85 12.76 L 25.27 13.65 L 23.80 14.68 L 22.46 15.85 L 21.25 17.14 L 20.17 18.54 L 19.23 20.04 L 18.44 21.63 L 17.80 23.28 L 17.30 25.00 L 16.96 26.77 L 16.78 28.57 L 16.74 30.41 L 16.86 32.26 L 17.13 34.13 L 17.55 35.99 L 18.12 37.86 L 18.85 39.70 L 19.73 41.53 L 20.76 43.33 L 21.95 45.10 L 23.28 46.83 L 24.77 48.52 L 25.90 47.56 L 24.67 45.81 L 23.60 44.05 L 22.70 42.28 L 21.95 40.52 L 21.36 38.78 L 20.92 37.05 L 20.61 35.36 L 20.44 33.70 L 20.40 32.08 L 20.48 30.51 L 20.67 29.00 L 20.97 27.53 L 21.37 26.13 L 21.87 24.80 L 22.46 23.53 L 23.14 22.32 L 23.90 21.19 L 24.74 20.13 L 25.66 19.14 L 26.67 18.23 L 27.75 17.39 L 28.92 16.63 L 30.19 15.96 L 31.54 15.37 L 32.99 14.89 L 34.55 14.52 L 36.20 14.27 L 37.96 14.16 L 39.82 14.19 L 42.06 14.70 L 45.11 14.70 L 48.06 14.89 L 50.90 15.28 L 53.65 15.86 L 56.31 16.63 L 58.87 17.58 L 61.34 18.72 L 63.72 20.04 L 66.01 21.55 L 68.20 23.22 L 70.12 25.24 L 71.92 27.38 L 73.62 29.66 L 75.22 32.06 L 76.71 34.57 L 78.10 37.20 L 79.39 39.94 L 80.58 42.78 L 81.67 45.71 L 82.67 48.74 L 83.57 51.86 L 84.38 55.05 L 85.09 58.32 L 85.70 61.66 L 86.22 65.06 L 86.65 68.51 L 86.98 72.02 L 87.22 75.56 L 87.37 79.15 L 87.42 82.76 Z M 146.21 197.40 L 144.66 198.33 L 143.20 199.37 L 141.84 200.50 L 140.57 201.73 L 139.40 203.04 L 138.34 204.42 L 137.37 205.88 L 136.51 207.40 L 135.75 208.98 L 135.10 210.61 L 134.55 212.28 L 134.11 213.99 L 133.77 215.73 L 133.53 217.50 L 133.40 219.29 L 133.37 221.09 L 133.45 222.90 L 133.63 224.72 L 133.91 226.54 L 134.30 228.36 L 134.79 230.17 L 135.38 231.96 L 136.08 233.73 L 136.88 235.48 L 137.79 237.20 L 138.80 238.88 L 139.90 240.51 L 141.06 242.04 L 142.30 243.49 L 143.59 244.85 L 144.93 246.12 L 146.30 247.32 L 147.63 248.54 L 149.01 249.68 L 150.44 250.74 L 151.91 251.71 L 153.43 252.60 L 154.99 253.39 L 156.58 254.09 L 158.21 254.69 L 159.86 255.19 L 161.53 255.59 L 163.22 255.88 L 164.93 256.07 L 166.64 256.14 L 168.37 256.10 L 170.08 255.93 L 171.80 255.65 L 173.49 255.23 L 175.17 254.69 L 176.82 254.01 L 178.43 253.20 L 179.98 252.27 L 181.44 251.24 L 182.80 250.10 L 184.07 248.88 L 185.24 247.57 L 186.30 246.18 L 187.27 244.72 L 188.13 243.20 L 188.89 241.62 L 189.54 239.99 L 190.09 238.32 L 190.53 236.61 L 190.87 234.87 L 191.11 233.10 L 191.24 231.32 L 191.27 229.51 L 191.19 227.70 L 191.01 225.88 L 190.73 224.06 L 190.34 222.24 L 189.85 220.44 L 189.26 218.65 L 188.56 216.87 L 187.76 215.13 L 186.85 213.41 L 185.84 211.72 L 184.47 210.16 L 182.93 208.83 L 181.44 207.43 L 179.77 206.13 L 177.92 205.00 L 175.93 204.03 L 173.82 203.19 L 171.63 202.48 L 169.39 201.89 L 167.13 201.39 L 164.86 200.98 L 162.61 200.65 L 160.42 200.38 L 158.30 200.16 L 156.28 199.99 L 154.39 199.85 L 152.65 199.73 L 151.09 199.63 L 149.73 199.54 L 148.63 199.46 L 147.80 199.44 L 147.28 199.56 L 147.15 199.85 L 148.44 200.80 L 148.18 201.49 L 148.43 201.24 L 146.21 197.40 L 145.17 198.04 L 144.34 199.45 L 145.75 201.00 L 146.36 201.77 L 147.17 202.29 L 148.19 202.58 L 149.42 202.78 L 150.83 202.93 L 152.42 203.06 L 154.16 203.18 L 156.04 203.30 L 158.02 203.44 L 160.09 203.62 L 162.23 203.82 L 164.40 204.08 L 166.59 204.39 L 168.77 204.76 L 170.92 205.21 L 173.02 205.73 L 175.04 206.34 L 176.96 207.04 L 178.78 207.83 L 180.47 208.74 L 181.99 209.83 L 183.05 211.30 L 183.83 212.88 L 184.63 214.53 L 185.33 216.20 L 185.93 217.87 L 186.43 219.54 L 186.83 221.22 L 187.14 222.89 L 187.36 224.55 L 187.49 226.20 L 187.52 227.83 L 187.48 229.44 L 187.34 231.02 L 187.12 232.57 L 186.82 234.09 L 186.44 235.57 L 185.99 237.01 L 185.45 238.41 L 184.85 239.76 L 184.17 241.06 L 183.41 242.30 L 182.59 243.49 L 181.70 244.62 L 180.74 245.70 L 179.72 246.71 L 178.62 247.66 L 177.45 248.54 L 176.21 249.36 L 174.92 250.09 L 173.59 250.73 L 172.23 251.28 L 170.84 251.73 L 169.42 252.10 L 167.98 252.37 L 166.51 252.55 L 165.03 252.63 L 163.52 252.62 L 162.01 252.52 L 160.48 252.32 L 158.95 252.03 L 157.43 251.64 L 155.91 251.16 L 154.40 250.59 L 152.90 249.92 L 151.43 249.16 L 149.98 248.30 L 148.56 247.35 L 147.18 246.32 L 145.94 245.09 L 144.78 243.75 L 143.69 242.35 L 142.66 240.88 L 141.70 239.33 L 140.81 237.72 L 140.01 236.07 L 139.31 234.41 L 138.71 232.73 L 138.21 231.06 L 137.81 229.38 L 137.50 227.71 L 137.28 226.05 L 137.15 224.40 L 137.12 222.77 L 137.17 221.17 L 137.30 219.58 L 137.52 218.03 L 137.82 216.51 L 138.20 215.03 L 138.65 213.59 L 139.19 212.19 L 139.80 210.85 L 140.48 209.55 L 141.23 208.30 L 142.05 207.11 L 142.94 205.98 L 143.90 204.90 L 144.92 203.89 L 146.02 202.94 L 147.19 202.06 L 148.43 201.24 Z M 146.88 198.28 L 145.24 199.06 L 143.83 200.02 L 142.65 201.14 L 141.71 202.40 L 141.01 203.76 L 140.55 205.19 L 140.32 206.66 L 140.30 208.15 L 140.47 209.63 L 140.83 211.09 L 141.35 212.52 L 142.02 213.90 L 142.84 215.22 L 143.81 216.46 L 144.78 215.70 L 144.01 214.48 L 143.37 213.23 L 142.88 211.94 L 142.55 210.65 L 142.36 209.37 L 142.33 208.12 L 142.45 206.92 L 142.72 205.77 L 143.14 204.69 L 143.71 203.68 L 144.44 202.74 L 145.34 201.87 L 146.44 201.07 L 147.76 200.37 Z" fill="currentColor"/>
</svg>
