<svg xmlns="http://www.w3.org/2000/svg" viewBox="21.85,49.01,171.9,234.11" role="img" aria-label="Orbit of One">
  <title>Orbit of One</title>
  <path d="M 59.01 55.01 L 55.97 56.40 L 53.07 58.03 L 50.32 59.90 L 47.73 62.00 L 45.29 64.30 L 43.03 66.80 L 40.93 69.49 L 38.99 72.34 L 37.22 75.35 L 35.61 78.52 L 34.16 81.82 L 32.87 85.26 L 31.72 88.82 L 30.73 92.50 L 29.89 96.29 L 29.19 100.19 L 28.64 104.19 L 28.23 108.29 L 27.97 112.48 L 27.85 116.75 L 27.87 121.10 L 28.03 125.53 L 28.34 130.03 L 28.79 134.59 L 29.39 139.21 L 30.12 143.89 L 31.00 148.61 L 32.03 153.38 L 33.20 158.18 L 34.51 163.01 L 35.97 167.87 L 37.58 172.75 L 39.33 177.64 L 41.23 182.54 L 43.27 187.45 L 45.46 192.35 L 47.78 197.19 L 50.20 201.91 L 52.71 206.52 L 55.30 211.00 L 57.98 215.36 L 60.74 219.59 L 63.58 223.69 L 66.48 227.65 L 69.44 231.47 L 72.47 235.15 L 75.55 238.68 L 78.68 242.06 L 81.85 245.28 L 85.07 248.34 L 88.32 251.24 L 91.47 254.12 L 94.63 256.87 L 97.82 259.46 L 101.04 261.89 L 104.27 264.16 L 107.52 266.26 L 110.79 268.19 L 114.07 269.95 L 117.35 271.52 L 120.65 272.92 L 123.95 274.13 L 127.25 275.14 L 130.56 275.96 L 133.87 276.57 L 137.17 276.96 L 140.47 277.12 L 143.75 277.05 L 147.02 276.73 L 150.26 276.15 L 153.45 275.30 L 156.59 274.18 L 159.63 272.79 L 162.53 271.16 L 165.28 269.28 L 167.87 267.19 L 170.30 264.89 L 172.57 262.39 L 174.67 259.70 L 176.60 256.85 L 178.37 253.83 L 179.98 250.67 L 181.43 247.37 L 182.73 243.93 L 183.87 240.37 L 184.87 236.69 L 185.71 232.89 L 186.41 229.00 L 186.96 224.99 L 187.37 220.90 L 187.63 216.71 L 187.75 212.44 L 187.73 208.08 L 187.56 203.66 L 187.25 199.16 L 186.80 194.60 L 186.21 189.97 L 185.47 185.30 L 184.59 180.58 L 183.57 175.81 L 182.40 171.01 L 181.08 166.18 L 179.63 161.32 L 178.02 156.44 L 176.27 151.55 L 174.37 146.65 L 172.33 141.74 L 170.13 136.84 L 167.53 132.03 L 164.63 127.46 L 161.46 123.12 L 158.05 119.00 L 154.43 115.09 L 150.62 111.37 L 146.65 107.84 L 142.71 104.25 L 138.62 100.85 L 134.40 97.61 L 130.07 94.54 L 125.67 91.63 L 121.21 88.89 L 116.73 86.29 L 112.24 83.84 L 107.78 81.53 L 103.37 79.36 L 99.04 77.33 L 94.80 75.41 L 90.68 73.62 L 86.71 71.95 L 82.92 70.39 L 79.32 68.94 L 75.95 67.59 L 72.82 66.35 L 69.97 65.21 L 67.41 64.17 L 65.16 63.25 L 63.25 62.47 L 61.67 61.85 L 60.36 61.46 L 60.34 60.46 L 61.76 60.27 L 62.47 61.98 L 61.96 62.62 L 62.23 62.24 L 59.01 55.01 L 56.99 55.90 L 55.21 57.89 L 55.62 61.00 L 57.67 62.31 L 59.14 62.89 L 60.16 64.20 L 61.68 65.39 L 63.60 66.53 L 65.86 67.67 L 68.44 68.84 L 71.31 70.06 L 74.45 71.34 L 77.82 72.70 L 81.41 74.13 L 85.20 75.64 L 89.16 77.26 L 93.26 78.97 L 97.49 80.78 L 101.81 82.70 L 106.22 84.74 L 110.67 86.90 L 115.16 89.18 L 119.65 91.60 L 124.13 94.15 L 128.57 96.83 L 132.95 99.67 L 137.25 102.65 L 141.44 105.79 L 145.51 109.10 L 149.20 112.81 L 152.68 116.68 L 155.92 120.74 L 158.90 124.96 L 161.60 129.36 L 163.99 133.92 L 166.05 138.66 L 168.05 143.51 L 169.91 148.36 L 171.62 153.20 L 173.18 158.02 L 174.60 162.82 L 175.88 167.58 L 177.01 172.31 L 178.00 177.00 L 178.85 181.64 L 179.55 186.22 L 180.12 190.75 L 180.54 195.21 L 180.83 199.59 L 180.98 203.89 L 180.99 208.11 L 180.87 212.24 L 180.61 216.27 L 180.22 220.19 L 179.70 224.00 L 179.05 227.70 L 178.28 231.27 L 177.37 234.71 L 176.35 238.01 L 175.21 241.17 L 173.95 244.18 L 172.58 247.04 L 171.11 249.74 L 169.53 252.29 L 167.85 254.68 L 166.08 256.90 L 164.21 258.97 L 162.24 260.87 L 160.18 262.63 L 158.02 264.22 L 155.75 265.66 L 153.37 266.95 L 150.89 268.07 L 148.34 269.00 L 145.71 269.75 L 143.01 270.31 L 140.22 270.69 L 137.36 270.87 L 134.42 270.86 L 131.42 270.65 L 128.35 270.23 L 125.23 269.61 L 122.06 268.79 L 118.86 267.77 L 115.62 266.55 L 112.36 265.13 L 109.08 263.52 L 105.80 261.72 L 102.51 259.73 L 99.23 257.56 L 95.95 255.21 L 92.70 252.68 L 89.48 249.96 L 86.42 246.94 L 83.40 243.78 L 80.42 240.46 L 77.49 237.01 L 74.60 233.41 L 71.77 229.68 L 69.00 225.82 L 66.30 221.83 L 63.66 217.71 L 61.09 213.47 L 58.61 209.10 L 56.21 204.63 L 53.89 200.04 L 51.67 195.34 L 49.54 190.53 L 47.54 185.67 L 45.69 180.82 L 43.98 175.99 L 42.41 171.17 L 40.99 166.37 L 39.72 161.60 L 38.59 156.88 L 37.60 152.19 L 36.75 147.55 L 36.04 142.96 L 35.48 138.44 L 35.05 133.98 L 34.76 129.60 L 34.61 125.29 L 34.60 121.07 L 34.72 116.95 L 34.98 112.92 L 35.37 108.99 L 35.89 105.18 L 36.54 101.49 L 37.32 97.92 L 38.22 94.48 L 39.24 91.18 L 40.39 88.02 L 41.64 85.01 L 43.01 82.15 L 44.49 79.44 L 46.06 76.90 L 47.74 74.51 L 49.52 72.29 L 51.39 70.22 L 53.35 68.31 L 55.41 66.56 L 57.57 64.97 L 59.84 63.52 L 62.23 62.24 Z M 60.20 57.15 L 57.58 57.99 L 55.22 59.10 L 53.11 60.46 L 51.28 62.04 L 49.73 63.81 L 48.47 65.75 L 47.50 67.81 L 46.81 69.96 L 46.40 72.18 L 46.26 74.43 L 46.38 76.69 L 46.75 78.93 L 47.36 81.14 L 48.20 83.29 L 49.27 85.36 L 50.56 87.34 L 52.02 86.37 L 51.01 84.45 L 50.22 82.48 L 49.63 80.49 L 49.26 78.48 L 49.10 76.49 L 49.15 74.54 L 49.41 72.64 L 49.87 70.81 L 50.52 69.06 L 51.37 67.41 L 52.42 65.87 L 53.68 64.44 L 55.15 63.13 L 56.85 61.96 L 58.81 60.94 L 61.04 60.10 Z M 133.33 172.76 L 131.69 173.51 L 130.13 174.38 L 128.65 175.35 L 127.25 176.43 L 125.94 177.60 L 124.73 178.86 L 123.61 180.20 L 122.58 181.62 L 121.65 183.11 L 120.82 184.66 L 120.09 186.26 L 119.46 187.91 L 118.93 189.61 L 118.50 191.35 L 118.17 193.11 L 117.95 194.91 L 117.83 196.73 L 117.81 198.56 L 117.89 200.41 L 118.08 202.26 L 118.38 204.12 L 118.78 205.97 L 119.29 207.81 L 119.90 209.64 L 120.62 211.46 L 121.45 213.25 L 122.37 214.99 L 123.37 216.65 L 124.45 218.23 L 125.59 219.72 L 126.80 221.13 L 128.07 222.45 L 129.39 223.68 L 130.73 224.86 L 132.03 226.06 L 133.39 227.18 L 134.80 228.21 L 136.26 229.16 L 137.76 230.02 L 139.30 230.78 L 140.88 231.46 L 142.49 232.03 L 144.13 232.50 L 145.80 232.87 L 147.49 233.13 L 149.20 233.27 L 150.92 233.30 L 152.64 233.20 L 154.37 232.98 L 156.09 232.62 L 157.80 232.14 L 159.49 231.51 L 161.12 230.76 L 162.69 229.90 L 164.17 228.92 L 165.56 227.84 L 166.87 226.67 L 168.08 225.41 L 169.20 224.07 L 170.23 222.65 L 171.16 221.16 L 171.99 219.62 L 172.72 218.01 L 173.35 216.36 L 173.88 214.66 L 174.31 212.93 L 174.64 211.16 L 174.86 209.36 L 174.98 207.55 L 175.00 205.71 L 174.92 203.86 L 174.73 202.01 L 174.43 200.16 L 174.03 198.30 L 173.53 196.46 L 172.91 194.63 L 172.19 192.82 L 171.36 191.02 L 170.16 189.30 L 168.75 187.80 L 167.18 186.47 L 165.66 185.04 L 163.96 183.72 L 162.09 182.55 L 160.09 181.50 L 158.00 180.56 L 155.84 179.73 L 153.64 179.00 L 151.43 178.36 L 149.24 177.79 L 147.09 177.29 L 145.01 176.86 L 143.02 176.47 L 141.15 176.13 L 139.43 175.83 L 137.89 175.57 L 136.55 175.34 L 135.45 175.15 L 134.62 175.04 L 134.06 175.11 L 134.12 175.15 L 135.22 176.34 L 134.81 176.95 L 135.08 176.70 L 133.33 172.76 L 132.22 173.25 L 131.17 174.52 L 132.32 176.32 L 133.07 176.92 L 133.79 177.52 L 134.76 177.92 L 135.95 178.25 L 137.34 178.55 L 138.91 178.84 L 140.63 179.14 L 142.48 179.46 L 144.44 179.81 L 146.49 180.19 L 148.59 180.62 L 150.73 181.10 L 152.88 181.64 L 155.02 182.24 L 157.12 182.90 L 159.15 183.64 L 161.11 184.46 L 162.96 185.36 L 164.70 186.35 L 166.29 187.45 L 167.45 188.92 L 168.34 190.47 L 168.95 192.10 L 169.57 193.82 L 170.09 195.53 L 170.52 197.25 L 170.84 198.96 L 171.07 200.66 L 171.21 202.35 L 171.26 204.01 L 171.22 205.66 L 171.09 207.28 L 170.89 208.86 L 170.59 210.42 L 170.22 211.94 L 169.78 213.41 L 169.26 214.85 L 168.66 216.23 L 167.99 217.56 L 167.26 218.85 L 166.46 220.07 L 165.59 221.24 L 164.66 222.34 L 163.66 223.38 L 162.61 224.36 L 161.48 225.27 L 160.30 226.11 L 159.05 226.88 L 157.73 227.57 L 156.37 228.18 L 154.98 228.69 L 153.56 229.10 L 152.13 229.42 L 150.68 229.64 L 149.20 229.77 L 147.72 229.80 L 146.22 229.74 L 144.72 229.57 L 143.21 229.32 L 141.70 228.96 L 140.21 228.51 L 138.72 227.97 L 137.25 227.33 L 135.79 226.60 L 134.37 225.77 L 132.97 224.86 L 131.62 223.85 L 130.39 222.66 L 129.26 221.36 L 128.18 219.99 L 127.17 218.55 L 126.23 217.05 L 125.37 215.49 L 124.57 213.86 L 123.86 212.17 L 123.24 210.46 L 122.72 208.74 L 122.29 207.02 L 121.97 205.31 L 121.74 203.61 L 121.60 201.93 L 121.55 200.26 L 121.59 198.62 L 121.72 197.00 L 121.93 195.41 L 122.22 193.85 L 122.59 192.34 L 123.03 190.86 L 123.56 189.43 L 124.15 188.04 L 124.82 186.71 L 125.55 185.43 L 126.35 184.20 L 127.22 183.04 L 128.15 181.93 L 129.15 180.89 L 130.21 179.91 L 131.33 179.00 L 132.51 178.16 L 133.76 177.39 L 135.08 176.70 Z M 133.88 173.68 L 132.18 174.28 L 130.67 175.07 L 129.37 176.06 L 128.29 177.20 L 127.45 178.47 L 126.83 179.85 L 126.44 181.29 L 126.25 182.77 L 126.26 184.27 L 126.46 185.77 L 126.82 187.25 L 127.35 188.70 L 128.03 190.11 L 128.86 191.45 L 130.03 190.71 L 129.39 189.43 L 128.89 188.12 L 128.53 186.80 L 128.33 185.49 L 128.27 184.21 L 128.36 182.97 L 128.60 181.78 L 128.98 180.68 L 129.50 179.65 L 130.16 178.70 L 130.98 177.83 L 131.96 177.04 L 133.13 176.35 L 134.52 175.78 Z" fill="currentColor"/>
</svg>
